<?xml version="1.0" encoding="UTF-8" standalone="no"?>
<svg
   xmlns:dc="http://purl.org/dc/elements/1.1/"
   xmlns:cc="http://creativecommons.org/ns#"
   xmlns:rdf="http://www.w3.org/1999/02/22-rdf-syntax-ns#"
   xmlns:svg="http://www.w3.org/2000/svg"
   xmlns="http://www.w3.org/2000/svg"
   xmlns:sodipodi="http://sodipodi.sourceforge.net/DTD/sodipodi-0.dtd"
   xmlns:inkscape="http://www.inkscape.org/namespaces/inkscape"
   inkscape:export-ydpi="192"
   inkscape:export-xdpi="192"
   inkscape:export-filename="D:\Checkout\trunk\cyotek\source\Libraries\Cyotek.Drawing.PaletteFormat.Fractint\res\icon.png"
   inkscape:version="1.0 (4035a4fb49, 2020-05-01)"
   sodipodi:docname="icon.svg"
   xml:space="preserve"
   width="64px"
   viewBox="0 0 64 64"
   version="1.1"
   id="Layer_1"
   height="64px"
   enable-background="new 0 0 64 64"><metadata
     id="metadata21"><rdf:RDF><cc:Work
         rdf:about=""><dc:format>image/svg+xml</dc:format><dc:type
           rdf:resource="http://purl.org/dc/dcmitype/StillImage" /><dc:title></dc:title></cc:Work></rdf:RDF></metadata><defs
     id="defs19" /><sodipodi:namedview
     inkscape:current-layer="Layer_1"
     inkscape:window-maximized="1"
     inkscape:window-y="352"
     inkscape:window-x="892"
     inkscape:cy="32"
     inkscape:cx="30.644706"
     inkscape:zoom="13.28125"
     showgrid="false"
     id="namedview17"
     inkscape:window-height="1017"
     inkscape:window-width="2560"
     inkscape:pageshadow="2"
     inkscape:pageopacity="0"
     guidetolerance="10"
     gridtolerance="10"
     objecttolerance="10"
     borderopacity="1"
     bordercolor="#666666"
     pagecolor="#ffffff" /><circle
     style="fill:#e7b622;fill-opacity:1"
     id="circle2"
     r="32"
     fill="#4F5D73"
     cy="32"
     cx="32" /><path
     id="path4"
     opacity="0.2"
     fill="#231F20"
     d="M54,40c0,5.523-4.477,10-10,10c-5.523,0-10-4.477-10-10c0-10,10-18,10-18S54,30,54,40z" /><path
     style="fill:#2c89a0"
     id="path6"
     fill="#C75C5C"
     d="M54,38c0,5.523-4.477,10-10,10c-5.523,0-10-4.477-10-10c0-10,10-18,10-18S54,28,54,38z" /><path
     id="path8"
     opacity="0.2"
     fill="#231F20"
     d="M42,32c0,5.523-4.477,10-10,10c-5.523,0-10-4.477-10-10c0-10,10-18,10-18S42,22,42,32z" /><path
     style="fill:#89a02c"
     id="path10"
     fill="#77B3D4"
     d="M42,30c0,5.523-4.477,10-10,10c-5.523,0-10-4.477-10-10c0-10,10-18,10-18S42,20,42,30z" /><path
     id="path12"
     opacity="0.2"
     fill="#231F20"
     d="M30,40c0,5.523-4.477,10-10,10c-5.523,0-10-4.477-10-10c0-10,10-18,10-18S30,30,30,40z" /><path
     style="fill:#c83737"
     id="path14"
     fill="#F5CF87"
     d="M30,38c0,5.523-4.477,10-10,10c-5.523,0-10-4.477-10-10c0-10,10-18,10-18S30,28,30,38z" /></svg>
